# xmcd
#
# Track frame offsets:
#	150
#	20060
#	58307
#	90235
#	114372
#
# Disc length: 1987 seconds
#
# Revision: 0
# Processed by: cddbd v1.4PL0 Copyright (c) Steve Scherf et al.
# Submitted via: dBpowerAMP V4.0
#
DISCID=3807c105
DTITLE=Luther Allison - Live in Chicago (Promotioal Sampler)
DYEAR=1900
DGENRE=Blues
TTITLE0=Soul Fixin' Man
TTITLE1=Cherry Red Wine
TTITLE2=What Have I Done Wrong?
TTITLE3=Give Me Back My Wig
TTITLE4=It Hurts Me Too
EXTD=
EXTT0=
EXTT1=
EXTT2=
EXTT3=
EXTT4=
PLAYORDER=
